<svg width="12" height="12" viewBox="0 0 12 12" fill="none" xmlns="http://www.w3.org/2000/svg">
<path opacity="0.2" d="M8.25 2.625C8.25 2.8475 8.18402 3.06501 8.0604 3.25002C7.93679 3.43502 7.76109 3.57922 7.55552 3.66436C7.34995 3.74951 7.12375 3.77179 6.90552 3.72838C6.6873 3.68498 6.48684 3.57783 6.32951 3.4205C6.17217 3.26316 6.06503 3.06271 6.02162 2.84448C5.97821 2.62625 6.00049 2.40005 6.08564 2.19448C6.17078 1.98891 6.31498 1.81321 6.49998 1.6896C6.68499 1.56598 6.9025 1.5 7.125 1.5C7.42337 1.5 7.70952 1.61853 7.9205 1.8295C8.13147 2.04048 8.25 2.32663 8.25 2.625Z" fill="black" fill-opacity="0.63"/>
<path d="M7.12492 4.125C7.42159 4.125 7.7116 4.03703 7.95827 3.87221C8.20495 3.70738 8.39721 3.47312 8.51074 3.19903C8.62427 2.92494 8.65397 2.62334 8.5961 2.33237C8.53822 2.04139 8.39536 1.77412 8.18558 1.56434C7.9758 1.35456 7.70853 1.2117 7.41755 1.15382C7.12658 1.09594 6.82498 1.12565 6.55089 1.23918C6.2768 1.35271 6.04254 1.54497 5.87771 1.79165C5.71289 2.03832 5.62492 2.32833 5.62492 2.625C5.62492 3.02283 5.78295 3.40436 6.06426 3.68566C6.34556 3.96697 6.72709 4.125 7.12492 4.125ZM7.12492 1.875C7.27325 1.875 7.41826 1.91899 7.5416 2.0014C7.66493 2.08381 7.76106 2.20094 7.81783 2.33799C7.87459 2.47503 7.88945 2.62583 7.86051 2.77132C7.83157 2.9168 7.76014 3.05044 7.65525 3.15533C7.55036 3.26022 7.41672 3.33165 7.27124 3.36059C7.12575 3.38953 6.97495 3.37468 6.83791 3.31791C6.70086 3.26114 6.58373 3.16502 6.50132 3.04168C6.41891 2.91834 6.37492 2.77334 6.37492 2.625C6.37492 2.42609 6.45394 2.23532 6.59459 2.09467C6.73524 1.95402 6.92601 1.875 7.12492 1.875ZM10.2801 6.59438C10.2515 6.6075 9.92898 6.74813 9.35804 6.74813C8.70883 6.74813 7.73851 6.56625 6.5132 5.81063C6.32671 6.34006 6.08457 6.84822 5.79086 7.32656C6.3184 7.48897 6.81464 7.73955 7.25851 8.06766C8.15242 8.74922 8.62492 9.71953 8.62492 10.875C8.62492 10.9745 8.58541 11.0698 8.51508 11.1402C8.44476 11.2105 8.34937 11.25 8.24992 11.25C8.15046 11.25 8.05508 11.2105 7.98475 11.1402C7.91443 11.0698 7.87492 10.9745 7.87492 10.875C7.87492 8.92031 6.24882 8.21672 5.33711 7.97578C5.31132 8.00859 5.28461 8.04188 5.25789 8.07422C4.33726 9.18984 3.18367 9.77016 1.90023 9.77016C1.75405 9.77086 1.60792 9.76414 1.46242 9.75C1.36296 9.74006 1.27153 9.69101 1.20824 9.61365C1.14494 9.53629 1.11497 9.43696 1.12492 9.3375C1.13486 9.23804 1.18391 9.14661 1.26127 9.08332C1.33863 9.02003 1.43796 8.99006 1.53742 9C2.75242 9.12141 3.80945 8.64891 4.67804 7.59375C5.26351 6.88406 5.66242 6.01828 5.86164 5.39063C4.03726 4.32844 2.87195 5.23266 2.85929 5.2425C2.82109 5.27512 2.77673 5.29973 2.72884 5.31487C2.68094 5.33002 2.63049 5.33539 2.58049 5.33066C2.53048 5.32593 2.48193 5.3112 2.43772 5.28735C2.39351 5.2635 2.35455 5.23101 2.32314 5.19181C2.29173 5.15261 2.26851 5.1075 2.25487 5.05916C2.24123 5.01081 2.23744 4.96022 2.24373 4.91039C2.25002 4.86055 2.26625 4.81249 2.29147 4.76904C2.31669 4.7256 2.35038 4.68767 2.39054 4.6575C2.46086 4.60125 4.13523 3.29813 6.58632 4.96547C8.71773 6.41438 9.95804 5.9175 9.96976 5.91188C10.0147 5.89066 10.0634 5.87858 10.113 5.87634C10.1627 5.87411 10.2122 5.88176 10.2589 5.89885C10.3055 5.91594 10.3483 5.94213 10.3848 5.9759C10.4212 6.00967 10.4506 6.05034 10.4712 6.09556C10.4918 6.14078 10.5032 6.18963 10.5047 6.2393C10.5063 6.28896 10.4979 6.33843 10.4802 6.38484C10.4625 6.43125 10.4357 6.47367 10.4014 6.50964C10.3671 6.54561 10.326 6.57442 10.2805 6.59438H10.2801Z" fill="black" fill-opacity="0.63"/>
</svg>
