<svg width="14" height="14" viewBox="0 0 14 14" fill="none" xmlns="http://www.w3.org/2000/svg">
<path opacity="0.2" d="M8.3125 7C8.3125 7.25959 8.23552 7.51335 8.0913 7.72919C7.94709 7.94502 7.7421 8.11325 7.50227 8.21259C7.26244 8.31193 6.99854 8.33792 6.74394 8.28728C6.48934 8.23664 6.25548 8.11163 6.07192 7.92808C5.88837 7.74452 5.76336 7.51066 5.71272 7.25606C5.66208 7.00146 5.68807 6.73756 5.78741 6.49773C5.88675 6.2579 6.05498 6.05292 6.27081 5.9087C6.48665 5.76448 6.74041 5.6875 7 5.6875C7.3481 5.6875 7.68194 5.82578 7.92808 6.07192C8.17422 6.31806 8.3125 6.6519 8.3125 7Z" fill="#2065D1" fill-opacity="0.63"/>
<path d="M10.938 8.31249C10.5513 8.31229 10.1755 8.44082 9.86991 8.67781L8.60608 7.69343C8.70149 7.47471 8.75065 7.23862 8.75045 6.99999C8.75045 6.95953 8.75045 6.91906 8.74608 6.87913L9.46959 6.63796C9.69849 6.99099 10.0469 7.24974 10.4511 7.3668C10.8552 7.48386 11.288 7.45141 11.6701 7.27538C12.0523 7.09935 12.3582 6.79153 12.5319 6.40831C12.7056 6.02509 12.7354 5.59212 12.6158 5.18871C12.4963 4.78531 12.2354 4.43847 11.881 4.21174C11.5266 3.985 11.1023 3.89355 10.686 3.95414C10.2696 4.01472 9.88902 4.22328 9.6139 4.54162C9.33879 4.85995 9.18757 5.26675 9.18795 5.68749C9.18795 5.72796 9.18796 5.76843 9.19233 5.80835L8.46881 6.04953C8.31021 5.80433 8.09276 5.60271 7.83629 5.46306C7.57982 5.32341 7.29248 5.25017 7.00045 5.24999C6.90389 5.2502 6.80751 5.25824 6.71225 5.27406L6.33819 4.42968C6.66118 4.17161 6.88238 3.80751 6.96257 3.40193C7.04276 2.99635 6.97676 2.57547 6.77628 2.2139C6.5758 1.85232 6.25378 1.57341 5.8673 1.42658C5.48081 1.27975 5.05483 1.2745 4.66484 1.41175C4.27485 1.549 3.94605 1.81989 3.73671 2.17641C3.52738 2.53292 3.45102 2.95204 3.52118 3.35948C3.59134 3.76692 3.80349 4.13636 4.12002 4.40232C4.43655 4.66828 4.83702 4.81359 5.25045 4.81249C5.34702 4.81229 5.4434 4.80424 5.53866 4.78843L5.91272 5.63062C5.59551 5.88168 5.37535 6.23512 5.28986 6.63053C5.20438 7.02593 5.25888 7.43876 5.44405 7.79843L4.03803 9.04749C3.6842 8.80895 3.25551 8.70765 2.83232 8.76257C2.40914 8.81749 2.02051 9.02487 1.73928 9.34583C1.45805 9.66678 1.30354 10.0793 1.30469 10.506C1.30585 10.9328 1.4626 11.3444 1.74556 11.6638C2.02852 11.9833 2.41827 12.1885 2.84175 12.2412C3.26522 12.2938 3.69336 12.1902 4.0459 11.9497C4.39844 11.7093 4.65118 11.3485 4.75675 10.935C4.86232 10.5216 4.81347 10.0838 4.61936 9.70374L6.02538 8.45468C6.3298 8.65966 6.69111 8.76344 7.05791 8.75126C7.42471 8.73909 7.77833 8.61158 8.0685 8.38687L9.33233 9.37124C9.23721 9.58929 9.18807 9.8246 9.18795 10.0625C9.18795 10.4086 9.29059 10.747 9.48288 11.0347C9.67518 11.3225 9.94849 11.5468 10.2683 11.6793C10.588 11.8117 10.9399 11.8464 11.2794 11.7789C11.6188 11.7113 11.9306 11.5447 12.1754 11.2999C12.4201 11.0552 12.5868 10.7434 12.6543 10.4039C12.7219 10.0644 12.6872 9.71257 12.5547 9.3928C12.4223 9.07303 12.198 8.79972 11.9102 8.60742C11.6224 8.41513 11.2841 8.31249 10.938 8.31249ZM10.938 4.81249C11.111 4.81249 11.2802 4.86381 11.4241 4.95996C11.568 5.0561 11.6801 5.19276 11.7464 5.35265C11.8126 5.51253 11.8299 5.68846 11.7961 5.8582C11.7624 6.02793 11.679 6.18384 11.5567 6.30621C11.4343 6.42858 11.2784 6.51192 11.1087 6.54568C10.9389 6.57944 10.763 6.56212 10.6031 6.49589C10.4432 6.42966 10.3066 6.31751 10.2104 6.17362C10.1143 6.02972 10.063 5.86055 10.063 5.68749C10.063 5.45543 10.1551 5.23287 10.3192 5.06878C10.4833 4.90468 10.7059 4.81249 10.938 4.81249ZM4.37545 3.06249C4.37545 2.88944 4.42677 2.72026 4.52292 2.57637C4.61907 2.43248 4.75572 2.32033 4.91561 2.2541C5.07549 2.18787 5.25143 2.17054 5.42116 2.20431C5.59089 2.23807 5.7468 2.3214 5.86917 2.44378C5.99154 2.56615 6.07488 2.72206 6.10864 2.89179C6.1424 3.06152 6.12508 3.23746 6.05885 3.39734C5.99262 3.55723 5.88047 3.69388 5.73658 3.79003C5.59269 3.88618 5.42351 3.93749 5.25045 3.93749C5.01839 3.93749 4.79583 3.84531 4.63174 3.68121C4.46764 3.51712 4.37545 3.29456 4.37545 3.06249ZM3.06295 11.375C2.8899 11.375 2.72072 11.3237 2.57683 11.2275C2.43294 11.1314 2.32079 10.9947 2.25456 10.8348C2.18833 10.675 2.17101 10.499 2.20477 10.3293C2.23853 10.1596 2.32186 10.0036 2.44424 9.88128C2.56661 9.75891 2.72252 9.67557 2.89225 9.64181C3.06198 9.60804 3.23792 9.62537 3.3978 9.6916C3.55769 9.75783 3.69434 9.86998 3.79049 10.0139C3.88664 10.1578 3.93795 10.3269 3.93795 10.5C3.93795 10.7321 3.84577 10.9546 3.68167 11.1187C3.51758 11.2828 3.29502 11.375 3.06295 11.375ZM6.12545 6.99999C6.12545 6.82694 6.17677 6.65776 6.27292 6.51387C6.36906 6.36998 6.50572 6.25783 6.66561 6.1916C6.82549 6.12537 7.00143 6.10804 7.17116 6.14181C7.34089 6.17557 7.4968 6.2589 7.61917 6.38128C7.74154 6.50365 7.82488 6.65956 7.85864 6.82929C7.8924 6.99902 7.87508 7.17496 7.80885 7.33484C7.74262 7.49473 7.63047 7.63138 7.48658 7.72753C7.34269 7.82368 7.17351 7.87499 7.00045 7.87499C6.76839 7.87499 6.54583 7.78281 6.38174 7.61871C6.21764 7.45462 6.12545 7.23206 6.12545 6.99999ZM10.938 10.9375C10.7649 10.9375 10.5957 10.8862 10.4518 10.79C10.3079 10.6939 10.1958 10.5572 10.1296 10.3973C10.0633 10.2375 10.046 10.0615 10.0798 9.89179C10.1135 9.72206 10.1969 9.56615 10.3192 9.44378C10.4416 9.32141 10.5975 9.23807 10.7673 9.20431C10.937 9.17055 11.1129 9.18787 11.2728 9.2541C11.4327 9.32033 11.5693 9.43248 11.6655 9.57637C11.7616 9.72026 11.813 9.88944 11.813 10.0625C11.813 10.2946 11.7208 10.5171 11.5567 10.6812C11.3926 10.8453 11.17 10.9375 10.938 10.9375Z" fill="#2065D1" fill-opacity="0.63"/>
</svg>
