<svg width="12" height="12" viewBox="0 0 12 12" fill="none" xmlns="http://www.w3.org/2000/svg">
<g clip-path="url(#clip0_83_32)">
<path d="M5.99983 9.97972H11.5713M5.99983 9.97972C5.99983 10.1365 5.96895 10.2918 5.90895 10.4366C5.84894 10.5815 5.76099 10.7131 5.65012 10.824C5.53925 10.9349 5.40762 11.0228 5.26276 11.0828C5.1179 11.1428 4.96263 11.1737 4.80583 11.1737C4.64904 11.1737 4.49377 11.1428 4.34891 11.0828C4.20405 11.0228 4.07242 10.9349 3.96155 10.824C3.85068 10.7131 3.76273 10.5815 3.70272 10.4366C3.64272 10.2918 3.61184 10.1365 3.61184 9.97972C3.61184 9.82292 3.64272 9.66766 3.70272 9.52279C3.76273 9.37793 3.85068 9.2463 3.96155 9.13543C4.07242 9.02456 4.20405 8.93661 4.34891 8.8766C4.49377 8.8166 4.64904 8.78572 4.80583 8.78572C4.96263 8.78572 5.1179 8.8166 5.26276 8.8766C5.40762 8.93661 5.53925 9.02456 5.65012 9.13543C5.76099 9.2463 5.84894 9.37793 5.90895 9.52279C5.96895 9.66766 5.99983 9.82292 5.99983 9.97972ZM11.5713 9.97972L9.97955 8.388M11.5713 9.97972L9.97955 11.5714M2.81641 1.62257C2.81641 1.93924 2.9422 2.24294 3.16612 2.46686C3.39004 2.69078 3.69374 2.81657 4.01041 2.81657C4.32707 2.81657 4.63077 2.69078 4.85469 2.46686C5.07861 2.24294 5.20441 1.93924 5.20441 1.62257C5.20441 1.30591 5.07861 1.00221 4.85469 0.778288C4.63077 0.55437 4.32707 0.428574 4.01041 0.428574C3.69374 0.428574 3.39004 0.55437 3.16612 0.778288C2.9422 1.00221 2.81641 1.30591 2.81641 1.62257ZM5.99983 5.60229C5.99983 5.91896 6.12563 6.22266 6.34955 6.44657C6.57347 6.67049 6.87717 6.79629 7.19383 6.79629C7.5105 6.79629 7.8142 6.67049 8.03812 6.44657C8.26204 6.22266 8.38783 5.91896 8.38783 5.60229C8.38783 5.28562 8.26204 4.98192 8.03812 4.758C7.8142 4.53408 7.5105 4.40829 7.19383 4.40829C6.87717 4.40829 6.57347 4.53408 6.34955 4.758C6.12563 4.98192 5.99983 5.28562 5.99983 5.60229Z" stroke="black" stroke-opacity="0.63" stroke-width="0.857143" stroke-linecap="round" stroke-linejoin="round"/>
<path d="M5.99916 5.60229H2.61688C2.04389 5.61363 1.49821 5.84921 1.097 6.25844C0.695785 6.66766 0.47105 7.21791 0.47105 7.791C0.47105 8.3641 0.695785 8.91434 1.097 9.32357C1.49821 9.7328 2.04389 9.96838 2.61688 9.97972H3.61116M8.38716 5.60229H9.58116C10.1089 5.60229 10.615 5.39264 10.9882 5.01947C11.3614 4.6463 11.571 4.14017 11.571 3.61243C11.571 3.08469 11.3614 2.57856 10.9882 2.20539C10.615 1.83222 10.1089 1.62257 9.58116 1.62257H5.20202M2.81573 1.62257H0.427734" stroke="black" stroke-opacity="0.63" stroke-width="0.857143" stroke-linecap="round" stroke-linejoin="round"/>
</g>
<defs>
<clipPath id="clip0_83_32">
<rect width="12" height="12" fill="white"/>
</clipPath>
</defs>
</svg>
